# MagicaVoxel @ Ephtracy

# group
o 

# material
mtllib lamama.mtl
usemtl palette

# normals
vn -1 0 0
vn 1 0 0
vn 0 0 1
vn 0 0 -1
vn 0 -1 0
vn 0 1 0

# texcoords
vt 0.0332031 0.5
vt 0.0449219 0.5
vt 0.0605469 0.5
vt 0.0683594 0.5
vt 0.537109 0.5
vt 0.685547 0.5
vt 0.689453 0.5
vt 0.958984 0.5
vt 0.994141 0.5

# verts
v -0.5 0 0.4
v -0.5 0 0.2
v -0.5 0 -0.5
v -0.5 0 -0.7
v -0.5 0.5 0.2
v -0.5 0.5 -0.5
v -0.5 0.6 0.2
v -0.5 0.6 0.1
v -0.5 0.6 0
v -0.5 0.6 -0.1
v -0.5 0.6 -0.2
v -0.5 0.6 -0.3
v -0.5 0.6 -0.4
v -0.5 0.6 -0.5
v -0.5 0.6 -0.6
v -0.5 0.7 0.2
v -0.5 0.7 0.1
v -0.5 0.7 0
v -0.5 0.7 -0.1
v -0.5 0.7 -0.2
v -0.5 0.7 -0.3
v -0.5 0.7 -0.4
v -0.5 0.7 -0.5
v -0.5 0.8 0
v -0.5 0.8 -0.1
v -0.5 0.8 -0.4
v -0.5 0.8 -0.5
v -0.5 0.9 0
v -0.5 0.9 -0.1
v -0.5 0.9 -0.3
v -0.5 0.9 -0.4
v -0.5 1 0.4
v -0.5 1 0.2
v -0.5 1 0.1
v -0.5 1 0
v -0.5 1 -0.1
v -0.5 1 -0.3
v -0.5 1 -0.4
v -0.5 1 -0.5
v -0.5 1 -0.6
v -0.5 1 -0.7
v -0.3 0.6 0.6
v -0.3 0.6 0.4
v -0.3 1 0.4
v -0.3 1 0.2
v -0.3 1.2 0.8
v -0.3 1.2 0.6
v -0.3 1.5 0.8
v -0.3 1.5 0.7
v -0.3 1.6 0.8
v -0.3 1.6 0.7
v -0.3 1.7 0.8
v -0.3 1.7 0.5
v -0.3 1.7 0.4
v -0.3 1.7 0.2
v -0.3 1.9 0.5
v -0.3 1.9 0.4
v -0.2 1.2 1
v -0.2 1.2 0.9
v -0.2 1.2 0.8
v -0.2 1.3 1
v -0.2 1.3 0.9
v -0.2 1.4 1
v -0.2 1.4 0.9
v -0.2 1.5 1
v -0.2 1.5 0.9
v -0.2 1.5 0.8
v 0.1 1.7 0.5
v 0.1 1.7 0.4
v 0.1 1.9 0.5
v 0.1 1.9 0.4
v 0.3 0 0.4
v 0.3 0 0.2
v 0.3 0 -0.5
v 0.3 0 -0.7
v 0.3 0.5 0.4
v 0.3 0.5 0.2
v 0.3 0.5 -0.5
v 0.3 0.5 -0.7
v -0.3 0 0.4
v -0.3 0 0.2
v -0.3 0 -0.5
v -0.3 0 -0.7
v -0.3 0.5 0.4
v -0.3 0.5 0.2
v -0.3 0.5 -0.5
v -0.3 0.5 -0.7
v -0.1 1.7 0.5
v -0.1 1.7 0.4
v -0.1 1.9 0.5
v -0.1 1.9 0.4
v 0.2 1.2 1
v 0.2 1.2 0.9
v 0.2 1.2 0.8
v 0.2 1.3 1
v 0.2 1.3 0.9
v 0.2 1.4 1
v 0.2 1.4 0.9
v 0.2 1.5 1
v 0.2 1.5 0.9
v 0.2 1.5 0.8
v 0.3 0.6 0.6
v 0.3 0.6 0.4
v 0.3 1 0.4
v 0.3 1 0.2
v 0.3 1.2 0.8
v 0.3 1.2 0.6
v 0.3 1.5 0.8
v 0.3 1.5 0.7
v 0.3 1.6 0.8
v 0.3 1.6 0.7
v 0.3 1.7 0.8
v 0.3 1.7 0.5
v 0.3 1.7 0.4
v 0.3 1.7 0.2
v 0.3 1.9 0.5
v 0.3 1.9 0.4
v 0.5 0 0.4
v 0.5 0 0.2
v 0.5 0 -0.5
v 0.5 0 -0.7
v 0.5 0.5 0.2
v 0.5 0.5 -0.5
v 0.5 0.6 0.2
v 0.5 0.6 0.1
v 0.5 0.6 0
v 0.5 0.6 -0.1
v 0.5 0.6 -0.2
v 0.5 0.6 -0.3
v 0.5 0.6 -0.4
v 0.5 0.6 -0.5
v 0.5 0.6 -0.6
v 0.5 0.7 0.1
v 0.5 0.7 0
v 0.5 0.7 -0.1
v 0.5 0.7 -0.2
v 0.5 0.7 -0.3
v 0.5 0.7 -0.4
v 0.5 0.7 -0.5
v 0.5 0.7 -0.6
v 0.5 0.8 0.1
v 0.5 0.8 0
v 0.5 0.8 -0.2
v 0.5 0.8 -0.3
v 0.5 0.9 0
v 0.5 0.9 -0.1
v 0.5 0.9 -0.2
v 0.5 0.9 -0.3
v 0.5 1 0.4
v 0.5 1 0.2
v 0.5 1 0.1
v 0.5 1 0
v 0.5 1 -0.1
v 0.5 1 -0.5
v 0.5 1 -0.6
v 0.5 1 -0.7
v -0.2 1.2 1
v -0.2 1.3 1
v -0.2 1.4 1
v -0.2 1.5 1
v -0.1 1.3 1
v -0.1 1.4 1
v -0.1 1.5 1
v 0.1 1.3 1
v 0.1 1.4 1
v 0.1 1.5 1
v 0.2 1.2 1
v 0.2 1.3 1
v 0.2 1.4 1
v 0.2 1.5 1
v -0.3 1.2 0.8
v -0.3 1.5 0.8
v -0.3 1.6 0.8
v -0.3 1.7 0.8
v -0.2 1.2 0.8
v -0.2 1.5 0.8
v -0.2 1.6 0.8
v 0.2 1.2 0.8
v 0.2 1.5 0.8
v 0.2 1.6 0.8
v 0.3 1.2 0.8
v 0.3 1.5 0.8
v 0.3 1.6 0.8
v 0.3 1.7 0.8
v -0.3 0.6 0.6
v -0.3 1.2 0.6
v 0.3 0.6 0.6
v 0.3 1.2 0.6
v -0.3 1.7 0.5
v -0.3 1.9 0.5
v -0.1 1.7 0.5
v -0.1 1.9 0.5
v 0.1 1.7 0.5
v 0.1 1.9 0.5
v 0.3 1.7 0.5
v 0.3 1.9 0.5
v -0.5 0 0.4
v -0.5 1 0.4
v -0.3 0 0.4
v -0.3 0.5 0.4
v -0.3 0.6 0.4
v -0.3 1 0.4
v 0.3 0 0.4
v 0.3 0.5 0.4
v 0.3 0.6 0.4
v 0.3 1 0.4
v 0.5 0 0.4
v 0.5 1 0.4
v -0.5 0 -0.5
v -0.5 0.5 -0.5
v -0.3 0 -0.5
v -0.3 0.5 -0.5
v 0.3 0 -0.5
v 0.3 0.5 -0.5
v 0.5 0 -0.5
v 0.5 0.5 -0.5
v -0.3 1.7 0.4
v -0.3 1.9 0.4
v -0.1 1.7 0.4
v -0.1 1.9 0.4
v 0.1 1.7 0.4
v 0.1 1.9 0.4
v 0.3 1.7 0.4
v 0.3 1.9 0.4
v -0.5 0 0.2
v -0.5 0.5 0.2
v -0.3 0 0.2
v -0.3 0.5 0.2
v -0.3 1 0.2
v -0.3 1.7 0.2
v -0.1 1 0.2
v 0 1 0.2
v 0.3 0 0.2
v 0.3 0.5 0.2
v 0.3 1 0.2
v 0.3 1.7 0.2
v 0.5 0 0.2
v 0.5 0.5 0.2
v -0.5 0 -0.7
v -0.5 1 -0.7
v -0.3 0 -0.7
v -0.3 0.5 -0.7
v 0.3 0 -0.7
v 0.3 0.5 -0.7
v 0.5 0 -0.7
v 0.5 1 -0.7
v -0.5 0 0.4
v -0.3 0 0.4
v 0.3 0 0.4
v 0.5 0 0.4
v -0.5 0 0.2
v -0.3 0 0.2
v 0.3 0 0.2
v 0.5 0 0.2
v -0.5 0 -0.5
v -0.3 0 -0.5
v 0.3 0 -0.5
v 0.5 0 -0.5
v -0.5 0 -0.7
v -0.3 0 -0.7
v 0.3 0 -0.7
v 0.5 0 -0.7
v -0.3 0.5 0.4
v 0.3 0.5 0.4
v -0.5 0.5 0.2
v -0.3 0.5 0.2
v 0.3 0.5 0.2
v 0.5 0.5 0.2
v -0.5 0.5 -0.5
v -0.3 0.5 -0.5
v 0.3 0.5 -0.5
v 0.5 0.5 -0.5
v -0.3 0.5 -0.7
v 0.3 0.5 -0.7
v -0.3 0.6 0.6
v 0.3 0.6 0.6
v -0.3 0.6 0.4
v 0.3 0.6 0.4
v -0.2 1.2 1
v 0.2 1.2 1
v -0.2 1.2 0.9
v 0.2 1.2 0.9
v -0.3 1.2 0.8
v -0.2 1.2 0.8
v 0.2 1.2 0.8
v 0.3 1.2 0.8
v -0.3 1.2 0.6
v 0.3 1.2 0.6
v -0.5 1 0.4
v -0.3 1 0.4
v 0.3 1 0.4
v 0.5 1 0.4
v -0.5 1 0.2
v -0.3 1 0.2
v -0.1 1 0.2
v 0 1 0.2
v 0.3 1 0.2
v 0.4 1 0.2
v 0.5 1 0.2
v -0.5 1 0.1
v -0.1 1 0.1
v 0 1 0.1
v 0.2 1 0.1
v 0.3 1 0.1
v 0.4 1 0.1
v 0.5 1 0.1
v -0.5 1 0
v -0.3 1 0
v -0.1 1 0
v 0 1 0
v 0.2 1 0
v 0.3 1 0
v 0.4 1 0
v 0.5 1 0
v -0.5 1 -0.1
v -0.3 1 -0.1
v -0.1 1 -0.1
v 0 1 -0.1
v 0.4 1 -0.1
v 0.5 1 -0.1
v 0 1 -0.2
v 0.1 1 -0.2
v -0.5 1 -0.3
v -0.4 1 -0.3
v -0.2 1 -0.3
v -0.1 1 -0.3
v 0 1 -0.3
v 0.1 1 -0.3
v -0.5 1 -0.4
v -0.4 1 -0.4
v -0.2 1 -0.4
v -0.1 1 -0.4
v 0.2 1 -0.4
v 0.3 1 -0.4
v -0.5 1 -0.5
v -0.4 1 -0.5
v -0.3 1 -0.5
v 0.2 1 -0.5
v 0.3 1 -0.5
v 0.5 1 -0.5
v -0.5 1 -0.6
v -0.4 1 -0.6
v -0.3 1 -0.6
v 0.2 1 -0.6
v 0.3 1 -0.6
v 0.5 1 -0.6
v -0.5 1 -0.7
v 0.5 1 -0.7
v -0.2 1.5 1
v -0.1 1.5 1
v 0.1 1.5 1
v 0.2 1.5 1
v -0.2 1.5 0.9
v -0.1 1.5 0.9
v 0.1 1.5 0.9
v 0.2 1.5 0.9
v -0.2 1.5 0.8
v 0.2 1.5 0.8
v -0.3 1.7 0.8
v 0.3 1.7 0.8
v -0.3 1.7 0.5
v -0.1 1.7 0.5
v 0.1 1.7 0.5
v 0.3 1.7 0.5
v -0.3 1.7 0.4
v -0.1 1.7 0.4
v 0.1 1.7 0.4
v 0.3 1.7 0.4
v -0.3 1.7 0.2
v 0.3 1.7 0.2
v -0.3 1.9 0.5
v -0.1 1.9 0.5
v 0.1 1.9 0.5
v 0.3 1.9 0.5
v -0.3 1.9 0.4
v -0.1 1.9 0.4
v 0.1 1.9 0.4
v 0.3 1.9 0.4

# faces
f 5/8/1 2/8/1 1/8/1
f 6/8/1 4/8/1 3/8/1
f 7/8/1 5/8/1 1/8/1
f 7/8/1 6/8/1 5/8/1
f 8/8/1 6/8/1 7/8/1
f 9/8/1 6/8/1 8/8/1
f 10/8/1 6/8/1 9/8/1
f 11/8/1 6/8/1 10/8/1
f 12/8/1 6/8/1 11/8/1
f 13/8/1 6/8/1 12/8/1
f 14/8/1 4/8/1 6/8/1
f 14/8/1 6/8/1 13/8/1
f 15/8/1 4/8/1 14/8/1
f 16/8/1 7/8/1 1/8/1
f 16/4/1 8/4/1 7/4/1
f 17/2/1 9/2/1 8/2/1
f 17/4/1 8/4/1 16/4/1
f 18/4/1 10/4/1 9/4/1
f 18/2/1 9/2/1 17/2/1
f 19/2/1 11/2/1 10/2/1
f 19/4/1 10/4/1 18/4/1
f 20/4/1 12/4/1 11/4/1
f 20/2/1 11/2/1 19/2/1
f 21/2/1 13/2/1 12/2/1
f 21/4/1 12/4/1 20/4/1
f 22/4/1 14/4/1 13/4/1
f 22/2/1 13/2/1 21/2/1
f 23/2/1 15/2/1 14/2/1
f 23/4/1 14/4/1 22/4/1
f 24/6/1 18/6/1 17/6/1
f 24/7/1 19/7/1 18/7/1
f 25/6/1 20/6/1 19/6/1
f 25/7/1 19/7/1 24/7/1
f 25/6/1 22/6/1 21/6/1
f 25/6/1 21/6/1 20/6/1
f 26/7/1 23/7/1 22/7/1
f 26/6/1 22/6/1 25/6/1
f 27/2/1 15/2/1 23/2/1
f 27/7/1 23/7/1 26/7/1
f 28/6/1 24/6/1 17/6/1
f 28/6/1 25/6/1 24/6/1
f 28/6/1 27/6/1 26/6/1
f 28/6/1 26/6/1 25/6/1
f 29/6/1 27/6/1 28/6/1
f 30/6/1 27/6/1 29/6/1
f 31/6/1 27/6/1 30/6/1
f 32/8/1 16/8/1 1/8/1
f 33/2/1 17/2/1 16/2/1
f 33/8/1 16/8/1 32/8/1
f 34/6/1 28/6/1 17/6/1
f 34/2/1 17/2/1 33/2/1
f 35/7/1 29/7/1 28/7/1
f 35/6/1 28/6/1 34/6/1
f 36/6/1 30/6/1 29/6/1
f 36/7/1 29/7/1 35/7/1
f 37/7/1 31/7/1 30/7/1
f 37/6/1 30/6/1 36/6/1
f 38/6/1 27/6/1 31/6/1
f 38/7/1 31/7/1 37/7/1
f 39/2/1 15/2/1 27/2/1
f 39/6/1 27/6/1 38/6/1
f 40/8/1 4/8/1 15/8/1
f 40/2/1 15/2/1 39/2/1
f 41/8/1 4/8/1 40/8/1
f 44/8/1 43/8/1 42/8/1
f 47/8/1 44/8/1 42/8/1
f 47/8/1 45/8/1 44/8/1
f 48/8/1 47/8/1 46/8/1
f 49/8/1 47/8/1 48/8/1
f 50/9/1 49/9/1 48/9/1
f 51/8/1 47/8/1 49/8/1
f 51/9/1 49/9/1 50/9/1
f 52/8/1 51/8/1 50/8/1
f 53/8/1 45/8/1 47/8/1
f 53/8/1 51/8/1 52/8/1
f 53/8/1 47/8/1 51/8/1
f 54/8/1 45/8/1 53/8/1
f 55/8/1 45/8/1 54/8/1
f 56/8/1 54/8/1 53/8/1
f 57/8/1 54/8/1 56/8/1
f 61/3/1 59/3/1 58/3/1
f 62/8/1 60/8/1 59/8/1
f 62/3/1 59/3/1 61/3/1
f 63/8/1 62/8/1 61/8/1
f 64/8/1 60/8/1 62/8/1
f 64/8/1 62/8/1 63/8/1
f 65/5/1 64/5/1 63/5/1
f 66/8/1 60/8/1 64/8/1
f 66/5/1 64/5/1 65/5/1
f 67/8/1 60/8/1 66/8/1
f 70/8/1 69/8/1 68/8/1
f 71/8/1 69/8/1 70/8/1
f 76/8/1 73/8/1 72/8/1
f 77/8/1 73/8/1 76/8/1
f 78/8/1 75/8/1 74/8/1
f 79/8/1 75/8/1 78/8/1
f 80/8/2 81/8/2 84/8/2
f 84/8/2 81/8/2 85/8/2
f 82/8/2 83/8/2 86/8/2
f 86/8/2 83/8/2 87/8/2
f 88/8/2 89/8/2 90/8/2
f 90/8/2 89/8/2 91/8/2
f 92/3/2 93/3/2 95/3/2
f 93/8/2 94/8/2 96/8/2
f 95/3/2 93/3/2 96/3/2
f 95/8/2 96/8/2 97/8/2
f 96/8/2 94/8/2 98/8/2
f 97/8/2 96/8/2 98/8/2
f 97/5/2 98/5/2 99/5/2
f 98/8/2 94/8/2 100/8/2
f 99/5/2 98/5/2 100/5/2
f 100/8/2 94/8/2 101/8/2
f 102/8/2 103/8/2 104/8/2
f 102/8/2 104/8/2 107/8/2
f 104/8/2 105/8/2 107/8/2
f 106/8/2 107/8/2 108/8/2
f 108/8/2 107/8/2 109/8/2
f 108/9/2 109/9/2 110/9/2
f 109/8/2 107/8/2 111/8/2
f 110/9/2 109/9/2 111/9/2
f 110/8/2 111/8/2 112/8/2
f 107/8/2 105/8/2 113/8/2
f 112/8/2 111/8/2 113/8/2
f 111/8/2 107/8/2 113/8/2
f 113/8/2 105/8/2 114/8/2
f 114/8/2 105/8/2 115/8/2
f 113/8/2 114/8/2 116/8/2
f 116/8/2 114/8/2 117/8/2
f 118/8/2 119/8/2 122/8/2
f 120/8/2 121/8/2 123/8/2
f 118/8/2 122/8/2 124/8/2
f 122/8/2 123/8/2 124/8/2
f 124/8/2 123/8/2 125/8/2
f 125/8/2 123/8/2 126/8/2
f 126/8/2 123/8/2 127/8/2
f 127/8/2 123/8/2 128/8/2
f 128/8/2 123/8/2 129/8/2
f 129/8/2 123/8/2 130/8/2
f 123/8/2 121/8/2 131/8/2
f 130/8/2 123/8/2 131/8/2
f 131/8/2 121/8/2 132/8/2
f 124/2/2 125/2/2 133/2/2
f 125/4/2 126/4/2 133/4/2
f 126/2/2 127/2/2 134/2/2
f 133/4/2 126/4/2 134/4/2
f 127/4/2 128/4/2 135/4/2
f 134/2/2 127/2/2 135/2/2
f 128/2/2 129/2/2 136/2/2
f 135/4/2 128/4/2 136/4/2
f 129/4/2 130/4/2 137/4/2
f 136/2/2 129/2/2 137/2/2
f 130/2/2 131/2/2 138/2/2
f 137/4/2 130/4/2 138/4/2
f 131/4/2 132/4/2 139/4/2
f 138/2/2 131/2/2 139/2/2
f 132/8/2 121/8/2 140/8/2
f 139/4/2 132/4/2 140/4/2
f 124/2/2 133/2/2 141/2/2
f 133/7/2 134/7/2 141/7/2
f 135/6/2 136/6/2 142/6/2
f 141/7/2 134/7/2 142/7/2
f 138/6/2 139/6/2 142/6/2
f 136/6/2 137/6/2 142/6/2
f 134/6/2 135/6/2 142/6/2
f 137/6/2 138/6/2 142/6/2
f 142/6/2 139/6/2 143/6/2
f 143/6/2 139/6/2 144/6/2
f 141/6/2 142/6/2 145/6/2
f 142/6/2 143/6/2 145/6/2
f 145/6/2 143/6/2 146/6/2
f 143/7/2 144/7/2 147/7/2
f 146/6/2 143/6/2 147/6/2
f 144/6/2 139/6/2 148/6/2
f 147/7/2 144/7/2 148/7/2
f 118/8/2 124/8/2 149/8/2
f 124/2/2 141/2/2 150/2/2
f 149/8/2 124/8/2 150/8/2
f 141/6/2 145/6/2 151/6/2
f 150/2/2 141/2/2 151/2/2
f 145/7/2 146/7/2 152/7/2
f 151/6/2 145/6/2 152/6/2
f 146/6/2 147/6/2 153/6/2
f 152/7/2 146/7/2 153/7/2
f 147/6/2 148/6/2 153/6/2
f 148/6/2 139/6/2 154/6/2
f 153/6/2 148/6/2 154/6/2
f 139/2/2 140/2/2 154/2/2
f 140/8/2 121/8/2 155/8/2
f 154/2/2 140/2/2 155/2/2
f 155/8/2 121/8/2 156/8/2
f 161/3/3 158/3/3 157/3/3
f 161/8/3 159/8/3 158/8/3
f 162/5/3 160/5/3 159/5/3
f 162/8/3 159/8/3 161/8/3
f 163/5/3 160/5/3 162/5/3
f 164/3/3 161/3/3 157/3/3
f 164/1/3 162/1/3 161/1/3
f 165/8/3 163/8/3 162/8/3
f 165/1/3 162/1/3 164/1/3
f 166/8/3 163/8/3 165/8/3
f 167/3/3 164/3/3 157/3/3
f 168/8/3 165/8/3 164/8/3
f 168/3/3 164/3/3 167/3/3
f 169/5/3 166/5/3 165/5/3
f 169/8/3 165/8/3 168/8/3
f 170/5/3 166/5/3 169/5/3
f 175/8/3 172/8/3 171/8/3
f 176/9/3 173/9/3 172/9/3
f 176/8/3 172/8/3 175/8/3
f 177/8/3 174/8/3 173/8/3
f 177/9/3 173/9/3 176/9/3
f 179/8/3 177/8/3 176/8/3
f 180/8/3 174/8/3 177/8/3
f 180/8/3 177/8/3 179/8/3
f 181/8/3 179/8/3 178/8/3
f 182/9/3 180/9/3 179/9/3
f 182/8/3 179/8/3 181/8/3
f 183/8/3 174/8/3 180/8/3
f 183/9/3 180/9/3 182/9/3
f 184/8/3 174/8/3 183/8/3
f 187/8/3 186/8/3 185/8/3
f 188/8/3 186/8/3 187/8/3
f 191/8/3 190/8/3 189/8/3
f 192/8/3 190/8/3 191/8/3
f 195/8/3 194/8/3 193/8/3
f 196/8/3 194/8/3 195/8/3
f 199/8/3 198/8/3 197/8/3
f 200/8/3 198/8/3 199/8/3
f 201/8/3 198/8/3 200/8/3
f 202/8/3 198/8/3 201/8/3
f 204/8/3 201/8/3 200/8/3
f 205/8/3 201/8/3 204/8/3
f 207/8/3 204/8/3 203/8/3
f 207/8/3 206/8/3 205/8/3
f 207/8/3 205/8/3 204/8/3
f 208/8/3 206/8/3 207/8/3
f 211/8/3 210/8/3 209/8/3
f 212/8/3 210/8/3 211/8/3
f 215/8/3 214/8/3 213/8/3
f 216/8/3 214/8/3 215/8/3
f 217/8/4 218/8/4 219/8/4
f 219/8/4 218/8/4 220/8/4
f 221/8/4 222/8/4 223/8/4
f 223/8/4 222/8/4 224/8/4
f 225/8/4 226/8/4 227/8/4
f 227/8/4 226/8/4 228/8/4
f 229/8/4 230/8/4 231/8/4
f 231/8/4 230/8/4 232/8/4
f 232/8/4 230/8/4 235/8/4
f 235/8/4 230/8/4 236/8/4
f 233/8/4 234/8/4 237/8/4
f 237/8/4 234/8/4 238/8/4
f 239/8/4 240/8/4 241/8/4
f 241/8/4 240/8/4 242/8/4
f 242/8/4 240/8/4 244/8/4
f 243/8/4 244/8/4 245/8/4
f 244/8/4 240/8/4 246/8/4
f 245/8/4 244/8/4 246/8/4
f 251/8/5 248/8/5 247/8/5
f 252/8/5 248/8/5 251/8/5
f 253/8/5 250/8/5 249/8/5
f 254/8/5 250/8/5 253/8/5
f 259/8/5 256/8/5 255/8/5
f 260/8/5 256/8/5 259/8/5
f 261/8/5 258/8/5 257/8/5
f 262/8/5 258/8/5 261/8/5
f 266/8/5 264/8/5 263/8/5
f 267/8/5 264/8/5 266/8/5
f 269/8/5 266/8/5 265/8/5
f 269/8/5 268/8/5 267/8/5
f 269/8/5 267/8/5 266/8/5
f 270/8/5 268/8/5 269/8/5
f 271/8/5 268/8/5 270/8/5
f 272/8/5 268/8/5 271/8/5
f 273/8/5 271/8/5 270/8/5
f 274/8/5 271/8/5 273/8/5
f 277/8/5 276/8/5 275/8/5
f 278/8/5 276/8/5 277/8/5
f 281/3/5 280/3/5 279/3/5
f 282/3/5 280/3/5 281/3/5
f 284/8/5 282/8/5 281/8/5
f 285/8/5 282/8/5 284/8/5
f 287/8/5 285/8/5 284/8/5
f 287/8/5 286/8/5 285/8/5
f 287/8/5 284/8/5 283/8/5
f 288/8/5 286/8/5 287/8/5
f 289/8/6 290/8/6 293/8/6
f 293/8/6 290/8/6 294/8/6
f 291/8/6 292/8/6 297/8/6
f 297/8/6 292/8/6 298/8/6
f 298/8/6 292/8/6 299/8/6
f 293/2/6 294/2/6 300/2/6
f 294/2/6 295/2/6 300/2/6
f 295/4/6 296/4/6 301/4/6
f 300/2/6 295/2/6 301/2/6
f 296/2/6 297/2/6 302/2/6
f 301/4/6 296/4/6 302/4/6
f 302/2/6 297/2/6 303/2/6
f 297/4/6 298/4/6 304/4/6
f 303/2/6 297/2/6 304/2/6
f 298/2/6 299/2/6 305/2/6
f 304/4/6 298/4/6 305/4/6
f 305/2/6 299/2/6 306/2/6
f 300/6/6 301/6/6 307/6/6
f 302/6/6 303/6/6 307/6/6
f 301/6/6 302/6/6 307/6/6
f 307/6/6 303/6/6 308/6/6
f 308/6/6 303/6/6 309/6/6
f 309/6/6 303/6/6 310/6/6
f 303/7/6 304/7/6 311/7/6
f 310/6/6 303/6/6 311/6/6
f 305/6/6 306/6/6 312/6/6
f 311/7/6 304/7/6 312/7/6
f 304/6/6 305/6/6 312/6/6
f 312/6/6 306/6/6 313/6/6
f 313/6/6 306/6/6 314/6/6
f 307/7/6 308/7/6 315/7/6
f 308/6/6 309/6/6 316/6/6
f 315/7/6 308/7/6 316/7/6
f 309/7/6 310/7/6 317/7/6
f 316/6/6 309/6/6 317/6/6
f 310/6/6 311/6/6 318/6/6
f 317/7/6 310/7/6 318/7/6
f 311/6/6 312/6/6 318/6/6
f 312/6/6 313/6/6 318/6/6
f 313/7/6 314/7/6 319/7/6
f 318/6/6 313/6/6 319/6/6
f 319/7/6 314/7/6 320/7/6
f 315/6/6 316/6/6 321/6/6
f 316/6/6 317/6/6 321/6/6
f 319/6/6 320/6/6 321/6/6
f 318/6/6 319/6/6 321/6/6
f 317/6/6 318/6/6 321/6/6
f 321/6/6 320/6/6 322/6/6
f 315/6/6 321/6/6 323/6/6
f 323/6/6 321/6/6 324/6/6
f 324/6/6 321/6/6 325/6/6
f 325/6/6 321/6/6 326/6/6
f 321/7/6 322/7/6 327/7/6
f 326/6/6 321/6/6 327/6/6
f 322/6/6 320/6/6 328/6/6
f 327/7/6 322/7/6 328/7/6
f 323/7/6 324/7/6 329/7/6
f 324/6/6 325/6/6 330/6/6
f 329/7/6 324/7/6 330/7/6
f 325/7/6 326/7/6 331/7/6
f 330/6/6 325/6/6 331/6/6
f 326/6/6 327/6/6 332/6/6
f 331/7/6 326/7/6 332/7/6
f 327/6/6 328/6/6 332/6/6
f 328/6/6 320/6/6 333/6/6
f 332/6/6 328/6/6 333/6/6
f 333/6/6 320/6/6 334/6/6
f 330/6/6 331/6/6 335/6/6
f 329/6/6 330/6/6 335/6/6
f 331/6/6 332/6/6 335/6/6
f 332/6/6 333/6/6 335/6/6
f 335/6/6 333/6/6 336/6/6
f 336/6/6 333/6/6 337/6/6
f 333/7/6 334/7/6 338/7/6
f 337/6/6 333/6/6 338/6/6
f 334/6/6 320/6/6 339/6/6
f 338/7/6 334/7/6 339/7/6
f 339/6/6 320/6/6 340/6/6
f 335/2/6 336/2/6 341/2/6
f 336/4/6 337/4/6 342/4/6
f 341/2/6 336/2/6 342/2/6
f 337/2/6 338/2/6 343/2/6
f 342/4/6 337/4/6 343/4/6
f 338/4/6 339/4/6 344/4/6
f 343/2/6 338/2/6 344/2/6
f 339/2/6 340/2/6 345/2/6
f 344/4/6 339/4/6 345/4/6
f 345/2/6 340/2/6 346/2/6
f 341/8/6 342/8/6 347/8/6
f 342/8/6 343/8/6 347/8/6
f 345/8/6 346/8/6 347/8/6
f 344/8/6 345/8/6 347/8/6
f 343/8/6 344/8/6 347/8/6
f 347/8/6 346/8/6 348/8/6
f 349/5/6 350/5/6 353/5/6
f 350/8/6 351/8/6 354/8/6
f 353/5/6 350/5/6 354/5/6
f 351/5/6 352/5/6 355/5/6
f 354/8/6 351/8/6 355/8/6
f 355/5/6 352/5/6 356/5/6
f 353/8/6 354/8/6 357/8/6
f 354/8/6 355/8/6 357/8/6
f 355/8/6 356/8/6 357/8/6
f 357/8/6 356/8/6 358/8/6
f 359/8/6 360/8/6 361/8/6
f 361/8/6 360/8/6 362/8/6
f 362/8/6 360/8/6 363/8/6
f 363/8/6 360/8/6 364/8/6
f 362/8/6 363/8/6 366/8/6
f 366/8/6 363/8/6 367/8/6
f 365/8/6 366/8/6 369/8/6
f 367/8/6 368/8/6 369/8/6
f 366/8/6 367/8/6 369/8/6
f 369/8/6 368/8/6 370/8/6
f 371/8/6 372/8/6 375/8/6
f 375/8/6 372/8/6 376/8/6
f 373/8/6 374/8/6 377/8/6
f 377/8/6 374/8/6 378/8/6
