# MagicaVoxel @ Ephtracy

# group
o 

# material
mtllib ppiyoyo.mtl
usemtl palette

# normals
vn -1 0 0
vn 1 0 0
vn 0 0 1
vn 0 0 -1
vn 0 -1 0
vn 0 1 0

# texcoords
vt 0.0175781 0.5
vt 0.0917969 0.5
vt 0.994141 0.5

# verts
v -0.7 0.3 0
v -0.7 0.3 -0.1
v -0.7 0.4 0.1
v -0.7 0.4 0
v -0.7 0.4 -0.1
v -0.7 0.4 -0.2
v -0.7 0.6 0.1
v -0.7 0.6 0
v -0.7 0.6 -0.1
v -0.7 0.6 -0.2
v -0.7 0.7 0
v -0.7 0.7 -0.1
v -0.6 0 0.1
v -0.6 0 -0.1
v -0.6 0.1 0.1
v -0.6 0.1 0
v -0.6 0.3 0.3
v -0.6 0.3 0
v -0.6 0.3 -0.1
v -0.6 0.3 -0.3
v -0.6 0.4 0.1
v -0.6 0.4 0
v -0.6 0.4 -0.1
v -0.6 0.4 -0.2
v -0.6 0.4 -0.3
v -0.6 0.4 -0.4
v -0.6 0.5 0.5
v -0.6 0.5 0.3
v -0.6 0.6 0.1
v -0.6 0.6 0
v -0.6 0.6 -0.1
v -0.6 0.6 -0.2
v -0.6 0.6 -0.3
v -0.6 0.6 -0.4
v -0.6 0.7 0.5
v -0.6 0.7 0.4
v -0.6 0.7 0.1
v -0.6 0.7 0
v -0.6 0.7 -0.1
v -0.6 0.7 -0.3
v -0.6 0.8 0.5
v -0.6 0.8 0.4
v -0.6 0.9 0.5
v -0.6 0.9 0.1
v -0.5 0.6 0.6
v -0.5 0.6 0.5
v -0.5 0.7 0.6
v -0.5 0.7 0.5
v -0.3 0 0.1
v -0.3 0 -0.1
v -0.3 0.1 0.1
v -0.3 0.1 0
v -0.3 0.3 0
v -0.3 0.3 -0.1
v -0.5 0 0.1
v -0.5 0 -0.1
v -0.5 0.1 0.1
v -0.5 0.1 0
v -0.5 0.3 0
v -0.5 0.3 -0.1
v -0.3 0.6 0.6
v -0.3 0.6 0.5
v -0.3 0.7 0.6
v -0.3 0.7 0.5
v -0.2 0 0.1
v -0.2 0 -0.1
v -0.2 0.1 0.1
v -0.2 0.1 0
v -0.2 0.3 0.3
v -0.2 0.3 0
v -0.2 0.3 -0.1
v -0.2 0.3 -0.3
v -0.2 0.4 0.1
v -0.2 0.4 0
v -0.2 0.4 -0.1
v -0.2 0.4 -0.2
v -0.2 0.4 -0.3
v -0.2 0.4 -0.4
v -0.2 0.5 0.5
v -0.2 0.5 0.3
v -0.2 0.6 0.1
v -0.2 0.6 0
v -0.2 0.6 -0.1
v -0.2 0.6 -0.2
v -0.2 0.6 -0.3
v -0.2 0.6 -0.4
v -0.2 0.7 0.5
v -0.2 0.7 0.4
v -0.2 0.7 0.1
v -0.2 0.7 0
v -0.2 0.7 -0.1
v -0.2 0.7 -0.3
v -0.2 0.8 0.5
v -0.2 0.8 0.4
v -0.2 0.9 0.5
v -0.2 0.9 0.1
v -0.1 0.3 0
v -0.1 0.3 -0.1
v -0.1 0.4 0.1
v -0.1 0.4 0
v -0.1 0.4 -0.1
v -0.1 0.4 -0.2
v -0.1 0.6 0.1
v -0.1 0.6 0
v -0.1 0.6 -0.1
v -0.1 0.6 -0.2
v -0.1 0.7 0
v -0.1 0.7 -0.1
v -0.5 0.6 0.6
v -0.5 0.7 0.6
v -0.3 0.6 0.6
v -0.3 0.7 0.6
v -0.6 0.5 0.5
v -0.6 0.7 0.5
v -0.6 0.8 0.5
v -0.6 0.9 0.5
v -0.5 0.6 0.5
v -0.5 0.7 0.5
v -0.5 0.8 0.5
v -0.3 0.6 0.5
v -0.3 0.7 0.5
v -0.3 0.8 0.5
v -0.2 0.5 0.5
v -0.2 0.7 0.5
v -0.2 0.8 0.5
v -0.2 0.9 0.5
v -0.6 0.3 0.3
v -0.6 0.5 0.3
v -0.2 0.3 0.3
v -0.2 0.5 0.3
v -0.7 0.4 0.1
v -0.7 0.6 0.1
v -0.6 0 0.1
v -0.6 0.1 0.1
v -0.6 0.4 0.1
v -0.6 0.6 0.1
v -0.5 0 0.1
v -0.5 0.1 0.1
v -0.3 0 0.1
v -0.3 0.1 0.1
v -0.2 0 0.1
v -0.2 0.1 0.1
v -0.2 0.4 0.1
v -0.2 0.6 0.1
v -0.1 0.4 0.1
v -0.1 0.6 0.1
v -0.7 0.3 0
v -0.7 0.4 0
v -0.7 0.6 0
v -0.7 0.7 0
v -0.6 0.1 0
v -0.6 0.3 0
v -0.6 0.4 0
v -0.6 0.6 0
v -0.6 0.7 0
v -0.5 0.1 0
v -0.5 0.3 0
v -0.3 0.1 0
v -0.3 0.3 0
v -0.2 0.1 0
v -0.2 0.3 0
v -0.2 0.4 0
v -0.2 0.6 0
v -0.2 0.7 0
v -0.1 0.3 0
v -0.1 0.4 0
v -0.1 0.6 0
v -0.1 0.7 0
v -0.6 0.7 0.1
v -0.6 0.9 0.1
v -0.2 0.7 0.1
v -0.2 0.9 0.1
v -0.7 0.3 -0.1
v -0.7 0.4 -0.1
v -0.7 0.6 -0.1
v -0.7 0.7 -0.1
v -0.6 0 -0.1
v -0.6 0.3 -0.1
v -0.6 0.4 -0.1
v -0.6 0.6 -0.1
v -0.6 0.7 -0.1
v -0.5 0 -0.1
v -0.5 0.3 -0.1
v -0.3 0 -0.1
v -0.3 0.3 -0.1
v -0.2 0 -0.1
v -0.2 0.3 -0.1
v -0.2 0.4 -0.1
v -0.2 0.6 -0.1
v -0.2 0.7 -0.1
v -0.1 0.3 -0.1
v -0.1 0.4 -0.1
v -0.1 0.6 -0.1
v -0.1 0.7 -0.1
v -0.7 0.4 -0.2
v -0.7 0.6 -0.2
v -0.6 0.4 -0.2
v -0.6 0.6 -0.2
v -0.2 0.4 -0.2
v -0.2 0.6 -0.2
v -0.1 0.4 -0.2
v -0.1 0.6 -0.2
v -0.6 0.3 -0.3
v -0.6 0.4 -0.3
v -0.6 0.6 -0.3
v -0.6 0.7 -0.3
v -0.2 0.3 -0.3
v -0.2 0.4 -0.3
v -0.2 0.6 -0.3
v -0.2 0.7 -0.3
v -0.6 0.4 -0.4
v -0.6 0.6 -0.4
v -0.2 0.4 -0.4
v -0.2 0.6 -0.4
v -0.6 0 0.1
v -0.5 0 0.1
v -0.3 0 0.1
v -0.2 0 0.1
v -0.6 0 -0.1
v -0.5 0 -0.1
v -0.3 0 -0.1
v -0.2 0 -0.1
v -0.6 0.3 0.3
v -0.2 0.3 0.3
v -0.7 0.3 0
v -0.6 0.3 0
v -0.5 0.3 0
v -0.3 0.3 0
v -0.2 0.3 0
v -0.1 0.3 0
v -0.7 0.3 -0.1
v -0.6 0.3 -0.1
v -0.5 0.3 -0.1
v -0.3 0.3 -0.1
v -0.2 0.3 -0.1
v -0.1 0.3 -0.1
v -0.6 0.3 -0.3
v -0.2 0.3 -0.3
v -0.7 0.4 0.1
v -0.6 0.4 0.1
v -0.2 0.4 0.1
v -0.1 0.4 0.1
v -0.7 0.4 0
v -0.6 0.4 0
v -0.2 0.4 0
v -0.1 0.4 0
v -0.7 0.4 -0.1
v -0.6 0.4 -0.1
v -0.2 0.4 -0.1
v -0.1 0.4 -0.1
v -0.7 0.4 -0.2
v -0.6 0.4 -0.2
v -0.2 0.4 -0.2
v -0.1 0.4 -0.2
v -0.6 0.4 -0.3
v -0.2 0.4 -0.3
v -0.6 0.4 -0.4
v -0.2 0.4 -0.4
v -0.6 0.5 0.5
v -0.2 0.5 0.5
v -0.6 0.5 0.3
v -0.2 0.5 0.3
v -0.5 0.6 0.6
v -0.3 0.6 0.6
v -0.5 0.6 0.5
v -0.3 0.6 0.5
v -0.6 0.1 0.1
v -0.5 0.1 0.1
v -0.3 0.1 0.1
v -0.2 0.1 0.1
v -0.6 0.1 0
v -0.5 0.1 0
v -0.3 0.1 0
v -0.2 0.1 0
v -0.7 0.6 0.1
v -0.6 0.6 0.1
v -0.2 0.6 0.1
v -0.1 0.6 0.1
v -0.7 0.6 0
v -0.6 0.6 0
v -0.2 0.6 0
v -0.1 0.6 0
v -0.7 0.6 -0.1
v -0.6 0.6 -0.1
v -0.2 0.6 -0.1
v -0.1 0.6 -0.1
v -0.7 0.6 -0.2
v -0.6 0.6 -0.2
v -0.2 0.6 -0.2
v -0.1 0.6 -0.2
v -0.6 0.6 -0.3
v -0.2 0.6 -0.3
v -0.6 0.6 -0.4
v -0.2 0.6 -0.4
v -0.5 0.7 0.6
v -0.3 0.7 0.6
v -0.5 0.7 0.5
v -0.3 0.7 0.5
v -0.6 0.7 0.1
v -0.2 0.7 0.1
v -0.7 0.7 0
v -0.6 0.7 0
v -0.2 0.7 0
v -0.1 0.7 0
v -0.7 0.7 -0.1
v -0.6 0.7 -0.1
v -0.2 0.7 -0.1
v -0.1 0.7 -0.1
v -0.6 0.7 -0.3
v -0.2 0.7 -0.3
v -0.6 0.9 0.5
v -0.2 0.9 0.5
v -0.6 0.9 0.1
v -0.2 0.9 0.1

# faces
f 4/1/1 2/1/1 1/1/1
f 5/1/1 2/1/1 4/1/1
f 7/1/1 4/1/1 3/1/1
f 7/1/1 6/1/1 5/1/1
f 7/1/1 5/1/1 4/1/1
f 8/1/1 6/1/1 7/1/1
f 9/1/1 6/1/1 8/1/1
f 10/1/1 6/1/1 9/1/1
f 11/1/1 9/1/1 8/1/1
f 12/1/1 9/1/1 11/1/1
f 15/2/1 14/2/1 13/2/1
f 16/2/1 14/2/1 15/2/1
f 18/2/1 14/2/1 16/2/1
f 19/2/1 14/2/1 18/2/1
f 21/1/1 18/1/1 17/1/1
f 22/1/1 18/1/1 21/1/1
f 23/1/1 20/1/1 19/1/1
f 24/1/1 20/1/1 23/1/1
f 25/1/1 20/1/1 24/1/1
f 28/1/1 21/1/1 17/1/1
f 29/1/1 21/1/1 28/1/1
f 29/1/1 28/1/1 27/1/1
f 32/1/1 26/1/1 25/1/1
f 32/1/1 25/1/1 24/1/1
f 33/1/1 26/1/1 32/1/1
f 34/1/1 26/1/1 33/1/1
f 35/1/1 30/1/1 29/1/1
f 35/1/1 29/1/1 27/1/1
f 36/1/1 30/1/1 35/1/1
f 37/1/1 30/1/1 36/1/1
f 38/1/1 30/1/1 37/1/1
f 39/1/1 33/1/1 32/1/1
f 39/1/1 32/1/1 31/1/1
f 40/1/1 33/1/1 39/1/1
f 41/3/1 36/3/1 35/3/1
f 42/1/1 37/1/1 36/1/1
f 42/3/1 36/3/1 41/3/1
f 43/1/1 42/1/1 41/1/1
f 44/1/1 37/1/1 42/1/1
f 44/1/1 42/1/1 43/1/1
f 47/2/1 46/2/1 45/2/1
f 48/2/1 46/2/1 47/2/1
f 51/2/1 50/2/1 49/2/1
f 52/2/1 50/2/1 51/2/1
f 53/2/1 50/2/1 52/2/1
f 54/2/1 50/2/1 53/2/1
f 55/2/2 56/2/2 57/2/2
f 57/2/2 56/2/2 58/2/2
f 58/2/2 56/2/2 59/2/2
f 59/2/2 56/2/2 60/2/2
f 61/2/2 62/2/2 63/2/2
f 63/2/2 62/2/2 64/2/2
f 65/2/2 66/2/2 67/2/2
f 67/2/2 66/2/2 68/2/2
f 68/2/2 66/2/2 70/2/2
f 70/2/2 66/2/2 71/2/2
f 69/1/2 70/1/2 73/1/2
f 73/1/2 70/1/2 74/1/2
f 71/1/2 72/1/2 75/1/2
f 75/1/2 72/1/2 76/1/2
f 76/1/2 72/1/2 77/1/2
f 69/1/2 73/1/2 80/1/2
f 80/1/2 73/1/2 81/1/2
f 79/1/2 80/1/2 81/1/2
f 77/1/2 78/1/2 84/1/2
f 76/1/2 77/1/2 84/1/2
f 84/1/2 78/1/2 85/1/2
f 85/1/2 78/1/2 86/1/2
f 81/1/2 82/1/2 87/1/2
f 79/1/2 81/1/2 87/1/2
f 87/1/2 82/1/2 88/1/2
f 88/1/2 82/1/2 89/1/2
f 89/1/2 82/1/2 90/1/2
f 84/1/2 85/1/2 91/1/2
f 83/1/2 84/1/2 91/1/2
f 91/1/2 85/1/2 92/1/2
f 87/3/2 88/3/2 93/3/2
f 88/1/2 89/1/2 94/1/2
f 93/3/2 88/3/2 94/3/2
f 93/1/2 94/1/2 95/1/2
f 94/1/2 89/1/2 96/1/2
f 95/1/2 94/1/2 96/1/2
f 97/1/2 98/1/2 100/1/2
f 100/1/2 98/1/2 101/1/2
f 99/1/2 100/1/2 103/1/2
f 101/1/2 102/1/2 103/1/2
f 100/1/2 101/1/2 103/1/2
f 103/1/2 102/1/2 104/1/2
f 104/1/2 102/1/2 105/1/2
f 105/1/2 102/1/2 106/1/2
f 104/1/2 105/1/2 107/1/2
f 107/1/2 105/1/2 108/1/2
f 111/2/3 110/2/3 109/2/3
f 112/2/3 110/2/3 111/2/3
f 117/1/3 114/1/3 113/1/3
f 118/3/3 115/3/3 114/3/3
f 118/1/3 114/1/3 117/1/3
f 119/1/3 116/1/3 115/1/3
f 119/3/3 115/3/3 118/3/3
f 120/1/3 117/1/3 113/1/3
f 121/1/3 119/1/3 118/1/3
f 122/1/3 116/1/3 119/1/3
f 122/1/3 119/1/3 121/1/3
f 123/1/3 121/1/3 120/1/3
f 123/1/3 120/1/3 113/1/3
f 124/3/3 122/3/3 121/3/3
f 124/1/3 121/1/3 123/1/3
f 125/1/3 116/1/3 122/1/3
f 125/3/3 122/3/3 124/3/3
f 126/1/3 116/1/3 125/1/3
f 129/1/3 128/1/3 127/1/3
f 130/1/3 128/1/3 129/1/3
f 135/1/3 132/1/3 131/1/3
f 136/1/3 132/1/3 135/1/3
f 137/2/3 134/2/3 133/2/3
f 138/2/3 134/2/3 137/2/3
f 141/2/3 140/2/3 139/2/3
f 142/2/3 140/2/3 141/2/3
f 145/1/3 144/1/3 143/1/3
f 146/1/3 144/1/3 145/1/3
f 152/1/3 148/1/3 147/1/3
f 153/1/3 148/1/3 152/1/3
f 154/1/3 150/1/3 149/1/3
f 155/1/3 150/1/3 154/1/3
f 156/2/3 152/2/3 151/2/3
f 157/2/3 152/2/3 156/2/3
f 160/2/3 159/2/3 158/2/3
f 161/2/3 159/2/3 160/2/3
f 165/1/3 162/1/3 161/1/3
f 166/1/3 162/1/3 165/1/3
f 167/1/3 164/1/3 163/1/3
f 168/1/3 164/1/3 167/1/3
f 169/1/4 170/1/4 171/1/4
f 171/1/4 170/1/4 172/1/4
f 173/1/4 174/1/4 178/1/4
f 178/1/4 174/1/4 179/1/4
f 175/1/4 176/1/4 180/1/4
f 180/1/4 176/1/4 181/1/4
f 177/2/4 178/2/4 182/2/4
f 182/2/4 178/2/4 183/2/4
f 184/2/4 185/2/4 186/2/4
f 186/2/4 185/2/4 187/2/4
f 187/1/4 188/1/4 191/1/4
f 191/1/4 188/1/4 192/1/4
f 189/1/4 190/1/4 193/1/4
f 193/1/4 190/1/4 194/1/4
f 195/1/4 196/1/4 197/1/4
f 197/1/4 196/1/4 198/1/4
f 199/1/4 200/1/4 201/1/4
f 201/1/4 200/1/4 202/1/4
f 203/1/4 204/1/4 207/1/4
f 207/1/4 204/1/4 208/1/4
f 205/1/4 206/1/4 209/1/4
f 209/1/4 206/1/4 210/1/4
f 211/1/4 212/1/4 213/1/4
f 213/1/4 212/1/4 214/1/4
f 219/2/5 216/2/5 215/2/5
f 220/2/5 216/2/5 219/2/5
f 221/2/5 218/2/5 217/2/5
f 222/2/5 218/2/5 221/2/5
f 226/1/5 224/1/5 223/1/5
f 227/1/5 224/1/5 226/1/5
f 228/1/5 224/1/5 227/1/5
f 229/1/5 224/1/5 228/1/5
f 231/1/5 226/1/5 225/1/5
f 232/1/5 226/1/5 231/1/5
f 233/1/5 228/1/5 227/1/5
f 234/1/5 228/1/5 233/1/5
f 235/1/5 230/1/5 229/1/5
f 236/1/5 230/1/5 235/1/5
f 237/1/5 234/1/5 233/1/5
f 237/1/5 235/1/5 234/1/5
f 237/1/5 233/1/5 232/1/5
f 238/1/5 235/1/5 237/1/5
f 243/1/5 240/1/5 239/1/5
f 244/1/5 240/1/5 243/1/5
f 245/1/5 242/1/5 241/1/5
f 246/1/5 242/1/5 245/1/5
f 251/1/5 248/1/5 247/1/5
f 252/1/5 248/1/5 251/1/5
f 253/1/5 250/1/5 249/1/5
f 254/1/5 250/1/5 253/1/5
f 257/1/5 256/1/5 255/1/5
f 258/1/5 256/1/5 257/1/5
f 261/1/5 260/1/5 259/1/5
f 262/1/5 260/1/5 261/1/5
f 265/2/5 264/2/5 263/2/5
f 266/2/5 264/2/5 265/2/5
f 267/2/6 268/2/6 271/2/6
f 271/2/6 268/2/6 272/2/6
f 269/2/6 270/2/6 273/2/6
f 273/2/6 270/2/6 274/2/6
f 275/1/6 276/1/6 279/1/6
f 279/1/6 276/1/6 280/1/6
f 277/1/6 278/1/6 281/1/6
f 281/1/6 278/1/6 282/1/6
f 283/1/6 284/1/6 287/1/6
f 287/1/6 284/1/6 288/1/6
f 285/1/6 286/1/6 289/1/6
f 289/1/6 286/1/6 290/1/6
f 291/1/6 292/1/6 293/1/6
f 293/1/6 292/1/6 294/1/6
f 295/2/6 296/2/6 297/2/6
f 297/2/6 296/2/6 298/2/6
f 299/1/6 300/1/6 302/1/6
f 302/1/6 300/1/6 303/1/6
f 301/1/6 302/1/6 305/1/6
f 303/1/6 304/1/6 305/1/6
f 302/1/6 303/1/6 305/1/6
f 305/1/6 304/1/6 306/1/6
f 306/1/6 304/1/6 307/1/6
f 307/1/6 304/1/6 308/1/6
f 306/1/6 307/1/6 309/1/6
f 309/1/6 307/1/6 310/1/6
f 311/1/6 312/1/6 313/1/6
f 313/1/6 312/1/6 314/1/6
